<?xml version="1.0" encoding="iso-8859-1"?>
<!-- Generator: Adobe Illustrator 19.0.0, SVG Export Plug-In . SVG Version: 6.00 Build 0)  -->
<svg version="1.1" id="Layer_1" xmlns="http://www.w3.org/2000/svg" xmlns:xlink="http://www.w3.org/1999/xlink" x="0px" y="0px"
	 viewBox="0 0 512 512" style="enable-background:new 0 0 512 512;" xml:space="preserve">
<path style="fill:#707070;" d="M452.695,0h-181.06h-0.044H90.531C66.389,0,46.817,19.571,46.817,43.713V512h224.774h0.044h224.774
	V43.713C496.409,19.571,476.837,0,452.695,0z"/>
<path style="fill:#8F8F8F;" d="M271.635,0H90.531C66.389,0,46.817,19.571,46.817,43.713V512h224.818V0z"/>
<rect x="97.437" y="64.674" style="fill:#ABCDE0;" width="348.4" height="53.352"/>
<rect x="97.437" y="64.674" style="fill:#D6F1FF;" width="174.195" height="53.352"/>
<g>
	<rect x="96.946" y="156.254" style="fill:#424242;" width="47.459" height="31.347"/>
	<rect x="176.734" y="156.254" style="fill:#424242;" width="47.459" height="31.347"/>
</g>
<rect x="15.591" y="205.5" style="fill:#3DDB86;" width="416.256" height="287.566"/>
<rect x="15.591" y="205.5" style="fill:#66FFAF;" width="256" height="287.566"/>
<circle style="fill:#3DDB86;" cx="93.257" cy="349.278" r="24.871"/>
<path style="fill:#048F46;" d="M431.848,461.713h-91.07c37.692-23.243,62.819-64.902,62.819-112.435s-25.128-89.191-62.819-112.435
	h91.07v-31.347H15.591v287.563h416.257V461.713z M202.405,461.713H99.36c-4.426-26.828-25.596-47.996-52.423-52.423V289.266
	c26.828-4.426,47.996-25.596,52.423-52.423h103.044c-37.692,23.243-62.819,64.902-62.819,112.435S164.712,438.469,202.405,461.713z"
	/>
<path style="fill:#3DDB86;" d="M271.591,205.497h-256V493.06h256V205.497z M99.36,461.713
	c-4.426-26.828-25.596-47.996-52.423-52.423V289.266c26.828-4.426,47.996-25.596,52.423-52.423h103.044
	c-37.692,23.243-62.819,64.902-62.819,112.435s25.128,89.191,62.819,112.435H99.36V461.713z"/>
<path style="fill:#66FFAF;" d="M271.591,450.829c-55.995,0-101.55-45.555-101.55-101.55s45.555-101.55,101.55-101.55
	s101.55,45.555,101.55,101.55S327.586,450.829,271.591,450.829z M271.591,279.076c-38.71,0-70.204,31.493-70.204,70.204
	s31.493,70.204,70.204,70.204s70.204-31.493,70.204-70.204S310.301,279.076,271.591,279.076z"/>
<polygon style="fill:#424242;" points="445.833,512 414.486,512 414.486,187.598 256.525,187.598 256.525,156.251 445.833,156.251 
	"/>
<g>
</g>
<g>
</g>
<g>
</g>
<g>
</g>
<g>
</g>
<g>
</g>
<g>
</g>
<g>
</g>
<g>
</g>
<g>
</g>
<g>
</g>
<g>
</g>
<g>
</g>
<g>
</g>
<g>
</g>
</svg>
